<?xml version="1.0" encoding="UTF-8" standalone="no"?>
<!DOCTYPE svg PUBLIC "-//W3C//DTD SVG 1.1//EN"
 "http://www.w3.org/Graphics/SVG/1.1/DTD/svg11.dtd">
<!-- Generated by graphviz version 9.0.0 (20230911.1827)
 -->
<!-- Pages: 1 -->
<svg width="239pt" height="291pt"
 viewBox="0.00 0.00 238.63 290.96" xmlns="http://www.w3.org/2000/svg" xmlns:xlink="http://www.w3.org/1999/xlink">
<g id="graph0" class="graph" transform="scale(1 1) rotate(0) translate(4 286.96)">
<polygon fill="white" stroke="none" points="-4,4 -4,-286.96 234.63,-286.96 234.63,4 -4,4"/>
<!-- jqt -->
<g id="node1" class="node">
<title>jqt</title>
<ellipse fill="none" stroke="black" cx="97.04" cy="-42.12" rx="27" ry="18"/>
<text text-anchor="middle" x="97.04" y="-37.07" font-family="Times,serif" font-size="14.00">jqt</text>
</g>
<!-- rhn -->
<g id="node2" class="node">
<title>rhn</title>
<ellipse fill="none" stroke="black" cx="180.31" cy="-21.44" rx="27" ry="18"/>
<text text-anchor="middle" x="180.31" y="-16.39" font-family="Times,serif" font-size="14.00">rhn</text>
</g>
<!-- jqt&#45;&#45;rhn -->
<g id="edge1" class="edge">
<title>jqt&#45;&#45;rhn</title>
<path fill="none" stroke="black" d="M122.48,-35.8C132.71,-33.26 144.49,-30.34 154.74,-27.79"/>
</g>
<!-- xhk -->
<g id="node3" class="node">
<title>xhk</title>
<ellipse fill="none" stroke="black" cx="141.29" cy="-18" rx="27" ry="18"/>
<text text-anchor="middle" x="141.29" y="-12.95" font-family="Times,serif" font-size="14.00">xhk</text>
</g>
<!-- jqt&#45;&#45;xhk -->
<g id="edge2" class="edge">
<title>jqt&#45;&#45;xhk</title>
<path fill="none" stroke="black" d="M118.39,-30.48C118.92,-30.19 119.45,-29.91 119.98,-29.62"/>
</g>
<!-- nvd -->
<g id="node4" class="node">
<title>nvd</title>
<ellipse fill="none" stroke="black" cx="67.53" cy="-119.95" rx="27" ry="18"/>
<text text-anchor="middle" x="67.53" y="-114.9" font-family="Times,serif" font-size="14.00">nvd</text>
</g>
<!-- jqt&#45;&#45;nvd -->
<g id="edge3" class="edge">
<title>jqt&#45;&#45;nvd</title>
<path fill="none" stroke="black" d="M90.35,-59.78C85.55,-72.43 79.12,-89.4 74.3,-102.09"/>
</g>
<!-- rhn&#45;&#45;xhk -->
<g id="edge12" class="edge">
<title>rhn&#45;&#45;xhk</title>
<path fill="none" stroke="black" d="M153.21,-19.05C153.1,-19.04 153,-19.03 152.9,-19.02"/>
</g>
<!-- hfx -->
<g id="node9" class="node">
<title>hfx</title>
<ellipse fill="none" stroke="black" cx="159.33" cy="-83.13" rx="27" ry="18"/>
<text text-anchor="middle" x="159.33" y="-78.08" font-family="Times,serif" font-size="14.00">hfx</text>
</g>
<!-- rhn&#45;&#45;hfx -->
<g id="edge14" class="edge">
<title>rhn&#45;&#45;hfx</title>
<path fill="none" stroke="black" d="M174.24,-39.28C171.48,-47.4 168.22,-56.98 165.45,-65.11"/>
</g>
<!-- bvb -->
<g id="node13" class="node">
<title>bvb</title>
<ellipse fill="none" stroke="black" cx="189.86" cy="-103.63" rx="27" ry="18"/>
<text text-anchor="middle" x="189.86" y="-98.58" font-family="Times,serif" font-size="14.00">bvb</text>
</g>
<!-- rhn&#45;&#45;bvb -->
<g id="edge13" class="edge">
<title>rhn&#45;&#45;bvb</title>
<path fill="none" stroke="black" d="M182.43,-39.68C184.01,-53.3 186.17,-71.83 187.75,-85.44"/>
</g>
<!-- xhk&#45;&#45;hfx -->
<g id="edge7" class="edge">
<title>xhk&#45;&#45;hfx</title>
<path fill="none" stroke="black" d="M146.31,-36.14C148.82,-45.18 151.83,-56.06 154.33,-65.09"/>
</g>
<!-- lhk -->
<g id="node12" class="node">
<title>lhk</title>
<ellipse fill="none" stroke="black" cx="27" cy="-177.47" rx="27" ry="18"/>
<text text-anchor="middle" x="27" y="-172.42" font-family="Times,serif" font-size="14.00">lhk</text>
</g>
<!-- nvd&#45;&#45;lhk -->
<g id="edge25" class="edge">
<title>nvd&#45;&#45;lhk</title>
<path fill="none" stroke="black" d="M55.81,-136.59C50.38,-144.29 43.96,-153.4 38.56,-161.07"/>
</g>
<!-- rsh -->
<g id="node5" class="node">
<title>rsh</title>
<ellipse fill="none" stroke="black" cx="159.32" cy="-247.81" rx="27" ry="18"/>
<text text-anchor="middle" x="159.32" y="-242.76" font-family="Times,serif" font-size="14.00">rsh</text>
</g>
<!-- frs -->
<g id="node6" class="node">
<title>frs</title>
<ellipse fill="none" stroke="black" cx="51.68" cy="-264.96" rx="27" ry="18"/>
<text text-anchor="middle" x="51.68" y="-259.91" font-family="Times,serif" font-size="14.00">frs</text>
</g>
<!-- rsh&#45;&#45;frs -->
<g id="edge4" class="edge">
<title>rsh&#45;&#45;frs</title>
<path fill="none" stroke="black" d="M132.71,-252.05C116.15,-254.69 94.93,-258.07 78.35,-260.71"/>
</g>
<!-- pzl -->
<g id="node7" class="node">
<title>pzl</title>
<ellipse fill="none" stroke="black" cx="155.67" cy="-166.39" rx="27" ry="18"/>
<text text-anchor="middle" x="155.67" y="-161.34" font-family="Times,serif" font-size="14.00">pzl</text>
</g>
<!-- rsh&#45;&#45;pzl -->
<g id="edge5" class="edge">
<title>rsh&#45;&#45;pzl</title>
<path fill="none" stroke="black" d="M158.49,-229.34C157.89,-216.01 157.09,-198.1 156.5,-184.79"/>
</g>
<!-- lsr -->
<g id="node8" class="node">
<title>lsr</title>
<ellipse fill="none" stroke="black" cx="97" cy="-222.05" rx="27" ry="18"/>
<text text-anchor="middle" x="97" y="-217" font-family="Times,serif" font-size="14.00">lsr</text>
</g>
<!-- rsh&#45;&#45;lsr -->
<g id="edge6" class="edge">
<title>rsh&#45;&#45;lsr</title>
<path fill="none" stroke="black" d="M136.12,-238.22C130.86,-236.04 125.27,-233.74 120.02,-231.56"/>
</g>
<!-- frs&#45;&#45;lsr -->
<g id="edge33" class="edge">
<title>frs&#45;&#45;lsr</title>
<path fill="none" stroke="black" d="M67.53,-249.95C71.92,-245.79 76.69,-241.28 81.08,-237.12"/>
</g>
<!-- qnr -->
<g id="node11" class="node">
<title>qnr</title>
<ellipse fill="none" stroke="black" cx="50.27" cy="-200.07" rx="27" ry="18"/>
<text text-anchor="middle" x="50.27" y="-195.02" font-family="Times,serif" font-size="14.00">qnr</text>
</g>
<!-- frs&#45;&#45;qnr -->
<g id="edge31" class="edge">
<title>frs&#45;&#45;qnr</title>
<path fill="none" stroke="black" d="M51.28,-246.54C51.09,-237.7 50.86,-227.13 50.66,-218.31"/>
</g>
<!-- frs&#45;&#45;lhk -->
<g id="edge32" class="edge">
<title>frs&#45;&#45;lhk</title>
<path fill="none" stroke="black" d="M46.57,-246.83C42.33,-231.82 36.34,-210.59 32.11,-195.58"/>
</g>
<!-- pzl&#45;&#45;nvd -->
<g id="edge19" class="edge">
<title>pzl&#45;&#45;nvd</title>
<path fill="none" stroke="black" d="M134.34,-155.15C120.58,-147.9 102.75,-138.51 88.98,-131.25"/>
</g>
<!-- pzl&#45;&#45;lsr -->
<g id="edge17" class="edge">
<title>pzl&#45;&#45;lsr</title>
<path fill="none" stroke="black" d="M139.95,-181.3C131.53,-189.29 121.19,-199.1 112.77,-207.09"/>
</g>
<!-- pzl&#45;&#45;hfx -->
<g id="edge18" class="edge">
<title>pzl&#45;&#45;hfx</title>
<path fill="none" stroke="black" d="M156.48,-147.91C157.09,-134.11 157.91,-115.34 158.52,-101.56"/>
</g>
<!-- lsr&#45;&#45;lhk -->
<g id="edge26" class="edge">
<title>lsr&#45;&#45;lhk</title>
<path fill="none" stroke="black" d="M77.13,-209.39C67.59,-203.32 56.2,-196.06 46.68,-190.01"/>
</g>
<!-- cmg -->
<g id="node10" class="node">
<title>cmg</title>
<ellipse fill="none" stroke="black" cx="107.43" cy="-158.96" rx="27.3" ry="18"/>
<text text-anchor="middle" x="107.43" y="-153.91" font-family="Times,serif" font-size="14.00">cmg</text>
</g>
<!-- cmg&#45;&#45;nvd -->
<g id="edge9" class="edge">
<title>cmg&#45;&#45;nvd</title>
<path fill="none" stroke="black" d="M92.12,-143.99C89.13,-141.07 86,-138 83,-135.08"/>
</g>
<!-- cmg&#45;&#45;qnr -->
<g id="edge8" class="edge">
<title>cmg&#45;&#45;qnr</title>
<path fill="none" stroke="black" d="M88.72,-172.42C82.33,-177.01 75.2,-182.14 68.83,-186.72"/>
</g>
<!-- cmg&#45;&#45;lhk -->
<g id="edge10" class="edge">
<title>cmg&#45;&#45;lhk</title>
<path fill="none" stroke="black" d="M81.54,-164.92C72.36,-167.04 62.02,-169.41 52.84,-171.53"/>
</g>
<!-- cmg&#45;&#45;bvb -->
<g id="edge11" class="edge">
<title>cmg&#45;&#45;bvb</title>
<path fill="none" stroke="black" d="M126.97,-145.85C140.11,-137.03 157.36,-125.45 170.47,-116.65"/>
</g>
<!-- qnr&#45;&#45;nvd -->
<g id="edge20" class="edge">
<title>qnr&#45;&#45;nvd</title>
<path fill="none" stroke="black" d="M54.18,-181.89C57.01,-168.78 60.81,-151.16 63.63,-138.06"/>
</g>
<!-- bvb&#45;&#45;xhk -->
<g id="edge15" class="edge">
<title>bvb&#45;&#45;xhk</title>
<path fill="none" stroke="black" d="M180.27,-86.71C171.81,-71.8 159.54,-50.17 151.03,-35.18"/>
</g>
<!-- bvb&#45;&#45;hfx -->
<g id="edge16" class="edge">
<title>bvb&#45;&#45;hfx</title>
<path fill="none" stroke="black" d="M170.7,-90.76C170.6,-90.7 170.51,-90.64 170.41,-90.57"/>
</g>
<!-- ntq -->
<g id="node14" class="node">
<title>ntq</title>
<ellipse fill="none" stroke="black" cx="203.63" cy="-44.6" rx="27" ry="18"/>
<text text-anchor="middle" x="203.63" y="-39.55" font-family="Times,serif" font-size="14.00">ntq</text>
</g>
<!-- ntq&#45;&#45;jqt -->
<g id="edge21" class="edge">
<title>ntq&#45;&#45;jqt</title>
<path fill="none" stroke="black" d="M176.18,-43.96C160.27,-43.59 140.3,-43.13 124.4,-42.76"/>
</g>
<!-- ntq&#45;&#45;xhk -->
<g id="edge24" class="edge">
<title>ntq&#45;&#45;xhk</title>
<path fill="none" stroke="black" d="M180.41,-34.7C175.15,-32.45 169.57,-30.07 164.31,-27.82"/>
</g>
<!-- ntq&#45;&#45;hfx -->
<g id="edge22" class="edge">
<title>ntq&#45;&#45;hfx</title>
<path fill="none" stroke="black" d="M186.88,-59.17C183.35,-62.24 179.63,-65.47 176.1,-68.54"/>
</g>
<!-- ntq&#45;&#45;bvb -->
<g id="edge23" class="edge">
<title>ntq&#45;&#45;bvb</title>
<path fill="none" stroke="black" d="M199.42,-62.63C197.72,-69.96 195.75,-78.4 194.04,-85.71"/>
</g>
<!-- rzs -->
<g id="node15" class="node">
<title>rzs</title>
<ellipse fill="none" stroke="black" cx="115.4" cy="-257.31" rx="27" ry="18"/>
<text text-anchor="middle" x="115.4" y="-252.26" font-family="Times,serif" font-size="14.00">rzs</text>
</g>
<!-- rzs&#45;&#45;rsh -->
<g id="edge30" class="edge">
<title>rzs&#45;&#45;rsh</title>
<path fill="none" stroke="black" d="M141.45,-251.68C141.6,-251.64 141.75,-251.61 141.9,-251.58"/>
</g>
<!-- rzs&#45;&#45;lsr -->
<g id="edge29" class="edge">
<title>rzs&#45;&#45;lsr</title>
<path fill="none" stroke="black" d="M106.42,-240.09C106.27,-239.81 106.12,-239.53 105.98,-239.25"/>
</g>
<!-- rzs&#45;&#45;cmg -->
<g id="edge28" class="edge">
<title>rzs&#45;&#45;cmg</title>
<path fill="none" stroke="black" d="M113.94,-239.27C112.51,-221.64 110.35,-194.93 108.91,-177.22"/>
</g>
<!-- rzs&#45;&#45;qnr -->
<g id="edge27" class="edge">
<title>rzs&#45;&#45;qnr</title>
<path fill="none" stroke="black" d="M98.96,-242.87C89.16,-234.26 76.76,-223.36 66.92,-214.71"/>
</g>
</g>
</svg>
